<svg width="198" height="40" viewBox="0 0 198 40" fill="none" xmlns="http://www.w3.org/2000/svg">
<g clip-path="url(#clip0_392_7945)">
<path d="M35.213 11.501L35.206 6.288L25.586 0V4.022L31.931 8.2L31.936 11.402L28.988 13.398L26.977 11.931V9.446L23.7 7.204V11.727L18.505 14.915L18.495 23.335L14.822 25.403L12.937 23.926V21.488L15.169 19.959V19.939V16.166L11.152 18.854L8.081 16.856L5.276 18.693L9.659 21.694V23.536L6.5 25.674L3.277 23.492V16.23L8.062 12.991L8.066 9.875L14.203 13.827L19.361 10.394L16.216 8.559L14.159 9.947L9.677 6.983L14.731 4.036L19.11 6.603V2.775L14.736 0.211L4.794 6.008L4.787 11.223L0 14.465V25.257L4.787 28.499L4.794 33.714L14.414 40V35.981L8.069 31.803L8.064 28.601L11.012 26.605L13.023 28.072V30.557L16.3 32.798V28.275L21.569 25.088L21.628 16.667L25.178 14.599L27.063 16.076V18.514L24.831 20.043V20.063V23.837L28.848 21.148L31.919 23.146L34.724 21.309L30.34 18.306V16.466L33.5 14.329L36.723 16.511V23.772L31.939 27.012L31.934 30.127L25.797 26.173L20.639 29.584L23.784 31.416L25.841 30.055L30.323 33.019L25.269 35.966L20.89 33.399V37.225L25.264 39.789L35.206 33.995L35.213 28.779L40 25.537V14.743L35.213 11.501Z" fill="#AC6AFF"/>
</g>
<path d="M52 7.55043H58.8807L63.6136 19.0845H63.8523L68.5852 7.55043H75.4659V27.9141H70.0568V16.1413H69.8977L65.3636 27.755H62.1023L57.5682 16.0618H57.4091V27.9141H52V7.55043Z" fill="white"/>
<path d="M85.4837 28.1925C83.853 28.1925 82.4477 27.8809 81.2678 27.2578C80.0945 26.6281 79.1896 25.7266 78.5533 24.5533C77.9235 23.3733 77.6087 21.9614 77.6087 20.3175C77.6087 18.7398 77.9268 17.361 78.5632 16.1811C79.1996 15.0012 80.0978 14.0831 81.2578 13.4268C82.4179 12.7706 83.7867 12.4425 85.3643 12.4425C86.5178 12.4425 87.5618 12.6214 88.4964 12.9794C89.4311 13.3374 90.2299 13.8577 90.8928 14.5405C91.5556 15.2166 92.0661 16.0386 92.424 17.0064C92.782 17.9742 92.9609 19.0646 92.9609 20.2777V21.5504H79.3189V18.5277H87.9098C87.9032 18.0902 87.7905 17.7057 87.5717 17.3743C87.3596 17.0362 87.0713 16.7744 86.7067 16.5888C86.3487 16.3965 85.9411 16.3004 85.4837 16.3004C85.0395 16.3004 84.6319 16.3965 84.2607 16.5888C83.8894 16.7744 83.5911 17.0329 83.3658 17.3643C83.147 17.6958 83.031 18.0836 83.0178 18.5277V21.7891C83.0178 22.2796 83.1205 22.7171 83.326 23.1016C83.5315 23.486 83.8265 23.7876 84.2109 24.0064C84.5954 24.2251 85.0594 24.3345 85.603 24.3345C85.9808 24.3345 86.3255 24.2815 86.6371 24.1754C86.9553 24.0694 87.227 23.9169 87.4524 23.718C87.6778 23.5125 87.8435 23.2673 87.9496 22.9822H92.9609C92.7886 24.0429 92.3809 24.9643 91.7379 25.7464C91.0949 26.522 90.2431 27.1252 89.1825 27.5561C88.1286 27.9804 86.8956 28.1925 85.4837 28.1925Z" fill="white"/>
<path d="M102.559 33.9595C101.027 33.9595 99.7148 33.7408 98.6211 33.3033C97.534 32.8724 96.6888 32.2758 96.0856 31.5135C95.489 30.7578 95.1542 29.8894 95.0813 28.9084H100.371C100.424 29.2332 100.557 29.495 100.769 29.6939C100.981 29.8928 101.253 30.0353 101.584 30.1214C101.922 30.2143 102.3 30.2607 102.718 30.2607C103.427 30.2607 104.014 30.0883 104.478 29.7436C104.948 29.3989 105.184 28.7758 105.184 27.8743V25.2891H105.025C104.826 25.8061 104.521 26.2469 104.11 26.6115C103.699 26.9695 103.205 27.2446 102.628 27.4368C102.051 27.6224 101.418 27.7152 100.729 27.7152C99.6419 27.7152 98.641 27.4633 97.7262 26.9595C96.8181 26.4557 96.0889 25.657 95.5387 24.5632C94.9951 23.4695 94.7234 22.041 94.7234 20.2777C94.7234 18.4349 95.0084 16.9368 95.5785 15.7834C96.1552 14.63 96.8976 13.7848 97.8058 13.2479C98.7205 12.7109 99.6817 12.4425 100.689 12.4425C101.445 12.4425 102.108 12.575 102.678 12.8402C103.248 13.0987 103.725 13.4467 104.11 13.8842C104.494 14.3151 104.786 14.7891 104.985 15.3061H105.104V12.6413H110.593V27.8743C110.593 29.1669 110.258 30.264 109.588 31.1655C108.926 32.0736 107.991 32.7663 106.784 33.2436C105.578 33.7209 104.169 33.9595 102.559 33.9595ZM102.757 23.8175C103.261 23.8175 103.692 23.6783 104.05 23.3999C104.415 23.1148 104.693 22.7105 104.885 22.1868C105.084 21.6565 105.184 21.0201 105.184 20.2777C105.184 19.522 105.084 18.8757 104.885 18.3388C104.693 17.7952 104.415 17.3809 104.05 17.0959C103.692 16.8042 103.261 16.6584 102.757 16.6584C102.254 16.6584 101.823 16.8042 101.465 17.0959C101.114 17.3809 100.842 17.7952 100.65 18.3388C100.464 18.8757 100.371 19.522 100.371 20.2777C100.371 21.0334 100.464 21.6764 100.65 22.2067C100.842 22.7304 101.114 23.1314 101.465 23.4098C101.823 23.6816 102.254 23.8175 102.757 23.8175Z" fill="white"/>
<path d="M117.64 28.1527C116.665 28.1527 115.804 27.9936 115.055 27.6754C114.312 27.3506 113.729 26.8601 113.305 26.2038C112.88 25.5476 112.668 24.7124 112.668 23.6982C112.668 22.8629 112.811 22.1503 113.096 21.5604C113.381 20.9638 113.779 20.4766 114.289 20.0987C114.799 19.7209 115.393 19.4325 116.069 19.2337C116.752 19.0348 117.487 18.9055 118.276 18.8459C119.131 18.7796 119.817 18.7 120.335 18.6072C120.858 18.5078 121.236 18.3719 121.468 18.1996C121.7 18.0206 121.816 17.7853 121.816 17.4936V17.4538C121.816 17.0561 121.664 16.7512 121.359 16.5391C121.054 16.3269 120.663 16.2209 120.185 16.2209C119.662 16.2209 119.234 16.3369 118.903 16.5689C118.578 16.7943 118.382 17.1423 118.316 17.6129H113.265C113.331 16.6849 113.626 15.8298 114.15 15.0476C114.68 14.2588 115.452 13.629 116.467 13.1584C117.481 12.6811 118.747 12.4425 120.265 12.4425C121.359 12.4425 122.34 12.5717 123.208 12.8303C124.076 13.0821 124.816 13.4368 125.425 13.8942C126.035 14.3449 126.499 14.8752 126.817 15.4851C127.142 16.0883 127.305 16.7446 127.305 17.4538V27.9141H122.174V25.7663H122.055C121.75 26.3364 121.379 26.7971 120.941 27.1484C120.51 27.4998 120.016 27.755 119.46 27.9141C118.909 28.0732 118.303 28.1527 117.64 28.1527ZM119.43 24.6925C119.847 24.6925 120.238 24.6063 120.603 24.4339C120.974 24.2616 121.276 24.013 121.508 23.6882C121.74 23.3634 121.856 22.969 121.856 22.505V21.2322C121.71 21.2919 121.554 21.3482 121.388 21.4013C121.229 21.4543 121.057 21.504 120.871 21.5504C120.692 21.5968 120.5 21.6399 120.295 21.6797C120.096 21.7195 119.887 21.7559 119.668 21.7891C119.244 21.8554 118.896 21.9647 118.624 22.1172C118.359 22.263 118.16 22.4453 118.028 22.6641C117.902 22.8762 117.839 23.1148 117.839 23.38C117.839 23.8042 117.988 24.129 118.286 24.3544C118.585 24.5798 118.966 24.6925 119.43 24.6925Z" fill="white"/>
<path d="M129.848 7.55043H136.728L141.461 19.0845H141.7L146.433 7.55043H153.314V27.9141H147.904V16.1413H147.745L143.211 27.755H139.95L135.416 16.0618H135.257V27.9141H129.848V7.55043Z" fill="white"/>
<path d="M156.013 27.9141V12.6413H161.502V27.9141H156.013ZM158.757 11.0504C158.015 11.0504 157.379 10.8052 156.848 10.3146C156.318 9.8241 156.053 9.23414 156.053 8.54474C156.053 7.85535 156.318 7.26539 156.848 6.77486C157.379 6.28433 158.015 6.03906 158.757 6.03906C159.507 6.03906 160.143 6.28433 160.667 6.77486C161.197 7.26539 161.462 7.85535 161.462 8.54474C161.462 9.23414 161.197 9.8241 160.667 10.3146C160.143 10.8052 159.507 11.0504 158.757 11.0504Z" fill="white"/>
<path d="M169.787 19.3232V27.9141H164.298V12.6413H169.509V15.5447H169.668C169.999 14.5769 170.582 13.8179 171.418 13.2678C172.259 12.7176 173.241 12.4425 174.361 12.4425C175.441 12.4425 176.379 12.6911 177.175 13.1882C177.977 13.6787 178.597 14.3549 179.034 15.2166C179.478 16.0784 179.697 17.0627 179.69 18.1697V27.9141H174.202V19.3232C174.208 18.5675 174.016 17.9742 173.625 17.5433C173.241 17.1125 172.704 16.897 172.014 16.897C171.563 16.897 171.169 16.9964 170.831 17.1953C170.5 17.3875 170.244 17.666 170.065 18.0305C169.886 18.3885 169.794 18.8194 169.787 19.3232Z" fill="white"/>
<path d="M187.928 28.1129C186.841 28.1129 185.84 27.8279 184.925 27.2578C184.017 26.6877 183.288 25.8227 182.738 24.6626C182.194 23.5026 181.923 22.041 181.923 20.2777C181.923 18.4349 182.208 16.9368 182.778 15.7834C183.354 14.63 184.097 13.7848 185.005 13.2479C185.92 12.7109 186.881 12.4425 187.888 12.4425C188.644 12.4425 189.307 12.575 189.877 12.8402C190.447 13.0987 190.924 13.4467 191.309 13.8842C191.693 14.3151 191.985 14.7891 192.184 15.3061H192.263V7.55043H197.752V27.9141H192.303V25.4084H192.184C191.972 25.9254 191.667 26.3894 191.269 26.8004C190.878 27.2048 190.401 27.5263 189.837 27.7649C189.281 27.9969 188.644 28.1129 187.928 28.1129ZM189.957 23.897C190.46 23.897 190.891 23.7512 191.249 23.4595C191.614 23.1612 191.892 22.7436 192.085 22.2067C192.283 21.6631 192.383 21.0201 192.383 20.2777C192.383 19.522 192.283 18.8757 192.085 18.3388C191.892 17.7952 191.614 17.3809 191.249 17.0959C190.891 16.8042 190.46 16.6584 189.957 16.6584C189.453 16.6584 189.022 16.8042 188.664 17.0959C188.313 17.3809 188.041 17.7952 187.849 18.3388C187.663 18.8757 187.57 19.522 187.57 20.2777C187.57 21.0334 187.663 21.683 187.849 22.2266C188.041 22.7635 188.313 23.1778 188.664 23.4695C189.022 23.7545 189.453 23.897 189.957 23.897Z" fill="white"/>
<defs>
<clipPath id="clip0_392_7945">
<rect width="40" height="40" fill="white"/>
</clipPath>
</defs>
</svg>
